<svg width="35" height="26" viewBox="0 0 35 26" fill="none" xmlns="http://www.w3.org/2000/svg">
<path fill-rule="evenodd" clip-rule="evenodd" d="M26.9461 17.951C27.5731 16.8946 27.9761 15.269 27.9761 13.1401C27.9761 11.0113 27.5731 9.3857 26.9461 8.32925C26.3387 7.3058 25.5553 6.85014 24.6561 6.85014C23.7376 6.85014 22.9476 7.31026 22.3387 8.33113C21.7092 9.3866 21.3061 11.0111 21.3061 13.1401C21.3061 15.2692 21.7092 16.8937 22.3387 17.9491C22.9476 18.97 23.7376 19.4301 24.6561 19.4301C25.5553 19.4301 26.3387 18.9745 26.9461 17.951ZM14.7461 13.1401C14.7461 6.21725 18.6794 0.890137 24.6561 0.890137C30.6366 0.890137 34.5361 6.22211 34.5361 13.1401C34.5361 20.0582 30.6366 25.3901 24.6561 25.3901C18.6794 25.3901 14.7461 20.063 14.7461 13.1401ZM28.9761 13.1401C28.9761 17.6101 27.2961 20.4301 24.6561 20.4301C21.9861 20.4301 20.3061 17.6101 20.3061 13.1401C20.3061 8.67014 21.9861 5.85014 24.6561 5.85014C27.2961 5.85014 28.9761 8.67014 28.9761 13.1401ZM24.6561 1.89014C19.4361 1.89014 15.7461 6.54014 15.7461 13.1401C15.7461 19.7401 19.4361 24.3901 24.6561 24.3901C29.8761 24.3901 33.5361 19.7401 33.5361 13.1401C33.5361 6.54014 29.8761 1.89014 24.6561 1.89014Z" fill="white"/>
<path fill-rule="evenodd" clip-rule="evenodd" d="M12.7982 1.13037V25.2236L6.23821 25.1373V8.29657L2.15494 9.9571L0 4.06399L7.06895 1.13037H12.7982ZM7.23821 6.81037V24.1504L11.7982 24.2104V2.13037H7.26822L1.26821 4.62037L2.73821 8.64037L7.23821 6.81037Z" fill="white"/>
</svg>
