<svg width="19" height="19" viewBox="0 0 19 19" fill="none" xmlns="http://www.w3.org/2000/svg">
<path d="M13.25 4.75C13.25 6.82209 11.5721 8.5 9.5 8.5C7.42791 8.5 5.75 6.82209 5.75 4.75C5.75 2.67791 7.42791 1 9.5 1C11.5721 1 13.25 2.67791 13.25 4.75ZM1 16.625C1 16.2026 1.20366 15.7586 1.71673 15.2851C2.2366 14.8053 3.00458 14.3656 3.93289 13.9938C5.79111 13.2493 8.03969 12.875 9.5 12.875C10.9603 12.875 13.2089 13.2493 15.0671 13.9938C15.9954 14.3656 16.7634 14.8053 17.2833 15.2851C17.7963 15.7586 18 16.2026 18 16.625V18H1V16.625Z" stroke="#000" stroke-width="2" stroke-linejoin="round"/>
</svg>
