<svg width="45" height="36" viewBox="0 0 45 36" fill="none" xmlns="http://www.w3.org/2000/svg">
<path fill-rule="evenodd" clip-rule="evenodd" d="M22.9901 10.0309C22.5138 9.68632 21.8764 9.69476 21.4089 10.0519L11.1547 18.7262C10.5561 19.1834 9.71052 19.0548 9.26611 18.4388C8.8217 17.8228 8.94675 16.9527 9.5454 16.4955L19.7996 7.82118C21.2021 6.74986 23.1142 6.72454 24.5431 7.75838L35.4264 16.4745C36.0363 16.9158 36.1831 17.7823 35.7542 18.4098C35.3253 19.0374 34.4833 19.1884 33.8734 18.7471L22.9901 10.0309Z" fill="#000"/>
<path fill-rule="evenodd" clip-rule="evenodd" d="M13 26.367V14H15.7143V26.367H29.2857V14H32V26.367C32 27.8212 30.7848 29 29.2857 29H15.7143C14.2152 29 13 27.8212 13 26.367Z" fill="#000"/>
</svg>
