<svg width="18" height="26" viewBox="0 0 18 26" fill="none" xmlns="http://www.w3.org/2000/svg">
<path fill-rule="evenodd" clip-rule="evenodd" d="M1.1887 19.823L1.53175 19.4961C2.67664 18.405 3.86795 17.4035 4.99458 16.4743C5.20405 16.3015 5.41074 16.1317 5.6143 15.9644C6.51546 15.224 7.35551 14.5337 8.10549 13.8615C9.02593 13.0366 9.75782 12.2847 10.2564 11.5693C10.7522 10.8578 10.9716 10.2477 10.9716 9.68998C10.9716 8.87419 10.7214 8.2605 10.3692 7.86435C10.0248 7.4768 9.53478 7.23998 8.91164 7.23998C7.79889 7.23998 6.61243 8.00697 6.10391 9.13957L5.69411 10.0523L0 7.49218L0.409375 6.58039C1.88516 3.29342 5.38452 0.97998 8.91164 0.97998C11.3909 0.97998 13.5593 1.86616 15.1089 3.43305C16.6578 4.99922 17.5316 7.18769 17.5316 9.68998C17.5316 12.2181 16.4414 14.3551 14.9473 16.1839C14.056 17.2749 12.9997 18.2816 11.9056 19.22H17.8316V25.18H1.59454L1.1887 19.823ZM9.09164 20.22C9.50911 19.8922 9.92896 19.5593 10.3451 19.22C13.5476 16.6089 16.5316 13.6194 16.5316 9.68998C16.5316 5.15998 13.3816 1.97998 8.91164 1.97998C6.11547 1.97998 3.2952 3.64259 1.78972 6.10401C1.61684 6.38666 1.4613 6.67984 1.32512 6.98225C1.32396 6.98483 1.3228 6.9874 1.32164 6.98998L5.19164 8.72998C5.19226 8.7286 5.19288 8.72722 5.19351 8.72584C5.85452 7.25807 7.38308 6.23998 8.91164 6.23998C10.7116 6.23998 11.9716 7.64998 11.9716 9.68998C11.9716 12.0352 9.35283 14.1869 6.24248 16.7426C4.93637 17.8158 3.54359 18.9601 2.22164 20.22L2.52164 24.18H16.8316V20.22H9.09164Z" fill="white"/>
</svg>
