<svg width="44" height="42" viewBox="0 0 44 42" fill="none" xmlns="http://www.w3.org/2000/svg">
<path d="M43.8772 15.7652L28.1033 14.4151L21.9386 0L15.7738 14.4369L0 15.7652L11.9785 26.0648L8.38054 41.3727L21.9386 33.2506L35.4966 41.3727L31.9207 26.0648L43.8772 15.7652ZM21.9386 29.1787V8.9278L25.6901 17.7249L35.2992 18.5524L28.0156 24.8236L30.2094 34.1434L21.9386 29.1787Z" fill="#6F00F8"/>
<path d="M43.8772 15.7652L28.1033 14.4151L21.9386 0L15.7738 14.4369L0 15.7652L11.9785 26.0648L8.38054 41.3727L21.9386 33.2506L35.4966 41.3727L31.9207 26.0648L43.8772 15.7652ZM21.9386 29.1787V8.9278L25.6901 17.7249L35.2992 18.5524L28.0156 24.8236L30.2094 34.1434L21.9386 29.1787Z" fill="url(#paint0_linear_479_468)"/>
<defs>
<linearGradient id="paint0_linear_479_468" x1="21.9386" y1="0" x2="21.9386" y2="41.3727" gradientUnits="userSpaceOnUse">
<stop stop-color="#6F00F8"/>
<stop offset="1" stop-color="#B100CE"/>
</linearGradient>
</defs>
</svg>
