<svg width="19" height="25" viewBox="0 0 19 25" fill="none" xmlns="http://www.w3.org/2000/svg">
<path fill-rule="evenodd" clip-rule="evenodd" d="M1.4442 11.0871L7.54932 0.00976562H15.071L10.854 7.49648C12.761 7.80101 14.4266 8.59815 15.6974 9.80101C17.3082 11.3256 18.23 13.4522 18.23 15.8898C18.23 18.3616 17.2822 20.5074 15.6315 22.0288C13.9866 23.5448 11.7016 24.3898 9.1 24.3898C6.49813 24.3898 4.21951 23.5446 2.58161 22.0271C0.938198 20.5044 0 18.3587 0 15.8898C0 13.9802 0.762616 12.3263 1.4442 11.0871ZM10.327 8.43213C9.98675 8.39102 9.63749 8.36664 9.28 8.35977H9.22L13.36 1.00977H8.14L2.32 11.5698C1.66 12.7698 1 14.2398 1 15.8898C1 20.2998 4.33 23.3898 9.1 23.3898C13.87 23.3898 17.23 20.2998 17.23 15.8898C17.23 11.872 14.4405 8.92919 10.327 8.43213ZM10.9675 17.7268C11.393 17.3038 11.67 16.6814 11.67 15.8898C11.67 15.0793 11.3904 14.4494 10.9654 14.0244C10.5403 13.5993 9.91046 13.3198 9.1 13.3198C8.30834 13.3198 7.68595 13.5967 7.26296 14.0223C6.83977 14.448 6.56 15.0791 6.56 15.8898C6.56 17.4075 7.58228 18.4298 9.1 18.4298C9.91065 18.4298 10.5418 18.15 10.9675 17.7268ZM12.67 15.8898C12.67 17.9598 11.2 19.4298 9.1 19.4298C7.03 19.4298 5.56 17.9598 5.56 15.8898C5.56 13.7898 7.03 12.3198 9.1 12.3198C11.2 12.3198 12.67 13.7898 12.67 15.8898Z" fill="white"/>
</svg>
