<svg width="42" height="38" viewBox="0 0 42 38" fill="none" xmlns="http://www.w3.org/2000/svg">
<path d="M41.0115 14.2447L26.5438 13.0264L20.8895 0.0175781L15.2353 13.046L0.767578 14.2447L11.7542 23.5395L8.45416 37.3539L20.8895 30.0242L33.3249 37.3539L30.045 23.5395L41.0115 14.2447ZM20.8895 26.3495L13.3237 30.8103L15.3359 22.3997L8.65538 16.7403L17.4688 15.9936L20.8895 8.07437L24.3304 16.0133L33.1438 16.76L26.4633 22.4194L28.4755 30.8299L20.8895 26.3495Z" fill="#6F00F8"/>
<path d="M41.0115 14.2447L26.5438 13.0264L20.8895 0.0175781L15.2353 13.046L0.767578 14.2447L11.7542 23.5395L8.45416 37.3539L20.8895 30.0242L33.3249 37.3539L30.045 23.5395L41.0115 14.2447ZM20.8895 26.3495L13.3237 30.8103L15.3359 22.3997L8.65538 16.7403L17.4688 15.9936L20.8895 8.07437L24.3304 16.0133L33.1438 16.76L26.4633 22.4194L28.4755 30.8299L20.8895 26.3495Z" fill="url(#paint0_linear_479_472)"/>
<defs>
<linearGradient id="paint0_linear_479_472" x1="20.8895" y1="0.0175781" x2="20.8895" y2="37.3539" gradientUnits="userSpaceOnUse">
<stop stop-color="#6F00F8"/>
<stop offset="1" stop-color="#B100CE"/>
</linearGradient>
</defs>
</svg>
