<svg width="45" height="36" viewBox="0 0 45 36" fill="none" xmlns="http://www.w3.org/2000/svg">
<path d="M15.8603 11.5244V21.8807C15.8727 21.8921 15.8864 21.9043 15.9016 21.9172C15.993 21.995 16.1018 22.0704 16.2046 22.134H31.8155C31.8281 22.134 31.839 22.1336 31.8481 22.1329C31.8502 22.1248 31.8517 22.1172 31.8525 22.111C31.8529 22.1085 31.8531 22.1066 31.8532 22.1054V13.6104C31.8395 13.6099 31.8268 13.6087 31.8155 13.6087H24.469C24.1565 13.6087 23.8566 13.4855 23.6344 13.2657L21.5324 11.1867H16.116C16.103 11.2003 16.089 11.2157 16.0741 11.2328C15.9975 11.3209 15.9232 11.4253 15.8603 11.5244ZM14.866 9.14795C15.0962 8.99299 15.4523 8.81323 15.898 8.81323H22.0201C22.3326 8.81323 22.6324 8.93647 22.8546 9.1562L24.9567 11.2352H31.8155C32.1016 11.2352 32.5537 11.2737 32.9789 11.425C33.3108 11.5432 34.2267 11.964 34.2267 13.0274V22.1097C34.2267 22.5041 34.1169 23.0672 33.7545 23.5651C33.3486 24.1227 32.6866 24.5075 31.8155 24.5075H15.898C15.7155 24.5075 15.5355 24.4654 15.3719 24.3845C15.1045 24.2523 14.7108 24.0203 14.3638 23.7252C14.19 23.5774 13.9923 23.3838 13.8298 23.1477C13.6728 22.9196 13.4868 22.5613 13.4868 22.1097V11.211C13.4868 11.0249 13.5305 10.8415 13.6144 10.6755C13.7488 10.4096 13.9841 10.0192 14.2831 9.67538C14.4329 9.50306 14.6284 9.30788 14.866 9.14795ZM10.5414 12.7873C10.9135 12.5223 11.3231 12.4462 11.6124 12.4462H12.8369V14.8197H12.187V25.7666C12.1991 25.7668 12.2117 25.7669 12.2247 25.7669H28.1422C28.1536 25.7669 28.1662 25.7667 28.1799 25.7662V24.5317H30.5534V26.3481C30.5534 27.4116 29.6375 27.8323 29.3056 27.9505C28.8804 28.1019 28.4284 28.1404 28.1422 28.1404H12.2247C11.0358 28.1404 9.81348 27.5763 9.81348 26.3481V14.2384C9.81348 13.6039 10.1082 13.0958 10.5414 12.7873Z" fill="#000"/>
</svg>
