<svg width="24" height="24" viewBox="0 0 24 24" fill="none" xmlns="http://www.w3.org/2000/svg">
<path d="M10.2 9H6C4.34315 9 3 10.3424 3 11.9992C3 14.803 3 17.8319 3 20.0003C3 21.6572 4.34315 23 6 23H18C19.6569 23 21 21.6569 21 20V12C21 10.3431 19.6569 9 18 9H14.0571" stroke="white" stroke-width="1.5"/>
<path d="M11.25 14C11.25 14.4142 11.5858 14.75 12 14.75C12.4142 14.75 12.75 14.4142 12.75 14L11.25 14ZM12.5303 0.46967C12.2374 0.176777 11.7626 0.176777 11.4697 0.46967L6.6967 5.24264C6.40381 5.53553 6.40381 6.01041 6.6967 6.3033C6.98959 6.59619 7.46447 6.59619 7.75736 6.3033L12 2.06066L16.2426 6.3033C16.5355 6.59619 17.0104 6.59619 17.3033 6.3033C17.5962 6.01041 17.5962 5.53553 17.3033 5.24264L12.5303 0.46967ZM12.75 14L12.75 1L11.25 1L11.25 14L12.75 14Z" fill="white"/>
</svg>
