<svg width="24" height="24" viewBox="0 0 24 24" fill="none" xmlns="http://www.w3.org/2000/svg">
<path d="M15.6 4C14.088 4 12.6368 4.69409 11.6897 5.79092C10.7425 4.69409 9.29131 4 7.77931 4C5.1029 4 3 6.0737 3 8.71296C3 11.952 5.95448 14.5913 10.4297 18.6016L11.6897 19.7241L12.9497 18.593C17.4248 14.5913 20.3793 11.952 20.3793 8.71296C20.3793 6.0737 18.2764 4 15.6 4Z" fill="#6F00F8"/>
<path d="M15.6 4C14.088 4 12.6368 4.69409 11.6897 5.79092C10.7425 4.69409 9.29131 4 7.77931 4C5.1029 4 3 6.0737 3 8.71296C3 11.952 5.95448 14.5913 10.4297 18.6016L11.6897 19.7241L12.9497 18.593C17.4248 14.5913 20.3793 11.952 20.3793 8.71296C20.3793 6.0737 18.2764 4 15.6 4Z" fill="#6F00F8"/>
</svg>
