<svg width="24" height="24" viewBox="0 0 24 24" fill="none" xmlns="http://www.w3.org/2000/svg">
<path d="M12.5 4C7.27273 4 2.80864 7.11 1 11.5C2.80864 15.89 7.27273 19 12.5 19C17.7273 19 22.1914 15.89 24 11.5C22.1914 7.11 17.7273 4 12.5 4ZM12.5 16.5C9.61455 16.5 7.27273 14.26 7.27273 11.5C7.27273 8.74 9.61455 6.5 12.5 6.5C15.3855 6.5 17.7273 8.74 17.7273 11.5C17.7273 14.26 15.3855 16.5 12.5 16.5ZM12.5 8.5C10.7645 8.5 9.36364 9.84 9.36364 11.5C9.36364 13.16 10.7645 14.5 12.5 14.5C14.2355 14.5 15.6364 13.16 15.6364 11.5C15.6364 9.84 14.2355 8.5 12.5 8.5Z" fill="#000"/>
<path d="M12.5 4C7.27273 4 2.80864 7.11 1 11.5C2.80864 15.89 7.27273 19 12.5 19C17.7273 19 22.1914 15.89 24 11.5C22.1914 7.11 17.7273 4 12.5 4ZM12.5 16.5C9.61455 16.5 7.27273 14.26 7.27273 11.5C7.27273 8.74 9.61455 6.5 12.5 6.5C15.3855 6.5 17.7273 8.74 17.7273 11.5C17.7273 14.26 15.3855 16.5 12.5 16.5ZM12.5 8.5C10.7645 8.5 9.36364 9.84 9.36364 11.5C9.36364 13.16 10.7645 14.5 12.5 14.5C14.2355 14.5 15.6364 13.16 15.6364 11.5C15.6364 9.84 14.2355 8.5 12.5 8.5Z" fill="#000"/>
</svg>
