<svg width="45" height="36" viewBox="0 0 45 36" fill="none" xmlns="http://www.w3.org/2000/svg">
<path d="M22.5 16.5C24.0198 16.5 25.25 15.2698 25.25 13.75C25.25 12.2302 24.0198 11 22.5 11C20.9802 11 19.75 12.2302 19.75 13.75C19.75 15.2698 20.9802 16.5 22.5 16.5ZM15.395 25.0199C15.7918 24.6537 16.4375 24.2695 17.3048 23.922C19.0425 23.2259 21.1647 22.875 22.5 22.875C23.8353 22.875 25.9575 23.2259 27.6952 23.922C28.5625 24.2695 29.2082 24.6537 29.605 25.0199C29.9883 25.3736 30 25.5699 30 25.625V26H15V25.625C15 25.5699 15.0117 25.3736 15.395 25.0199ZM32 25.625C32 22.4662 25.6706 20.875 22.5 20.875C19.3294 20.875 13 22.4662 13 25.625V28H32V25.625ZM27.25 13.75C27.25 16.3744 25.1244 18.5 22.5 18.5C19.8756 18.5 17.75 16.3744 17.75 13.75C17.75 11.1256 19.8756 9 22.5 9C25.1244 9 27.25 11.1256 27.25 13.75Z" fill="#000"/>
</svg>
