<svg width="17" height="15" viewBox="0 0 17 15" fill="none" xmlns="http://www.w3.org/2000/svg">
<path d="M11.7963 10.1014L12.6852 9.22658C12.8241 9.08988 13.0658 9.18557 13.0658 9.38241V13.3576C13.0658 14.0821 12.4686 14.6699 11.7324 14.6699H1.95446C1.21833 14.6699 0.621094 14.0821 0.621094 13.3576V3.73402C0.621094 3.00952 1.21833 2.42172 1.95446 2.42172H9.55184C9.74907 2.42172 9.84907 2.65684 9.71018 2.79627L8.82127 3.67114C8.7796 3.71215 8.72405 3.73402 8.66293 3.73402H1.95446V13.3576H11.7324V10.2546C11.7324 10.1971 11.7547 10.1425 11.7963 10.1014ZM16.1464 4.58429L8.85183 11.7637L6.34066 12.0371C5.61287 12.1164 4.99341 11.5122 5.07397 10.7904L5.35175 8.3189L12.6464 1.13948C13.2825 0.513402 14.3103 0.513402 14.9436 1.13948L16.1437 2.32056C16.7798 2.94664 16.7798 3.96094 16.1464 4.58429ZM13.4019 5.42909L11.788 3.84065L6.62678 8.92311L6.424 10.7084L8.23793 10.5088L13.4019 5.42909ZM15.202 3.25011L14.0019 2.06903C13.888 1.95694 13.7019 1.95694 13.5908 2.06903L12.7325 2.91383L14.3464 4.50227L15.2047 3.65747C15.3159 3.54265 15.3159 3.3622 15.202 3.25011Z" fill="white"/>
</svg>
