<svg width="14" height="14" viewBox="0 0 14 14" fill="none" xmlns="http://www.w3.org/2000/svg">
<path fill-rule="evenodd" clip-rule="evenodd" d="M12.7363 3.26395C12.9052 3.43282 13 3.66182 13 3.9006C13 4.13938 12.9052 4.36838 12.7363 4.53724L5.98687 11.2867C5.89768 11.3759 5.79178 11.4467 5.67523 11.495C5.55868 11.5433 5.43376 11.5681 5.3076 11.5681C5.18145 11.5681 5.05653 11.5433 4.93998 11.495C4.82343 11.4467 4.71753 11.3759 4.62833 11.2867L1.27491 7.93389C1.1889 7.85083 1.1203 7.75146 1.07311 7.6416C1.02591 7.53173 1.00107 7.41357 1.00003 7.29401C0.998995 7.17444 1.02178 7.05586 1.06706 6.9452C1.11233 6.83453 1.1792 6.73399 1.26375 6.64944C1.3483 6.56489 1.44884 6.49802 1.55951 6.45275C1.67017 6.40747 1.78875 6.38469 1.90831 6.38572C2.02788 6.38676 2.14604 6.41161 2.25591 6.4588C2.36577 6.50599 2.46513 6.57459 2.5482 6.6606L5.3073 9.4197L11.4625 3.26395C11.5461 3.18027 11.6454 3.11389 11.7547 3.0686C11.864 3.02331 11.9811 3 12.0994 3C12.2177 3 12.3348 3.02331 12.4441 3.0686C12.5534 3.11389 12.6527 3.18027 12.7363 3.26395Z" fill="#6F00F8"/>
</svg>
