<svg width="26" height="21" viewBox="0 0 26 21" fill="none" xmlns="http://www.w3.org/2000/svg">
<path d="M6.8593 3.52461V13.881C6.87169 13.8924 6.88544 13.9045 6.90059 13.9174C6.99203 13.9952 7.10086 14.0706 7.20365 14.1342H22.8146C22.8272 14.1342 22.838 14.1338 22.8472 14.1332C22.8492 14.125 22.8507 14.1175 22.8516 14.1113C22.8519 14.1087 22.8521 14.1068 22.8522 14.1057V5.61061C22.8385 5.61014 22.8259 5.60894 22.8146 5.60894H15.468C15.1555 5.60894 14.8556 5.4857 14.6335 5.26597L12.5314 3.18699H7.11498C7.10204 3.20059 7.08806 3.21592 7.07316 3.23307C6.99656 3.32115 6.92227 3.42556 6.8593 3.52461ZM5.86503 1.1482C6.09523 0.993237 6.45135 0.813477 6.89697 0.813477H13.0191C13.3316 0.813477 13.6315 0.936716 13.8536 1.15645L15.9557 3.23543H22.8146C23.1007 3.23543 23.5527 3.27391 23.9779 3.42527C24.3098 3.54346 25.2257 3.9642 25.2257 5.02767V14.11C25.2257 14.5044 25.116 15.0675 24.7535 15.5653C24.3476 16.1229 23.6856 16.5077 22.8146 16.5077H6.89697C6.7145 16.5077 6.53449 16.4656 6.37092 16.3847C6.10353 16.2525 5.70986 16.0206 5.36282 15.7254C5.18907 15.5776 4.99133 15.3841 4.82885 15.148C4.67187 14.9198 4.48579 14.5615 4.48579 14.11V3.21121C4.48579 3.02519 4.52952 2.84178 4.61344 2.67577C4.74786 2.40988 4.9831 2.01946 5.28209 1.67563C5.43193 1.5033 5.62745 1.30812 5.86503 1.1482ZM1.54046 4.78755C1.91256 4.52258 2.32215 4.4464 2.61147 4.4464H3.8359V6.81991H3.18601V17.7668C3.19814 17.767 3.2107 17.7671 3.22368 17.7671H19.1413C19.1526 17.7671 19.1652 17.7669 19.1789 17.7664V16.5319H21.5525V18.3484C21.5525 19.4119 20.6366 19.8326 20.3046 19.9508C19.8795 20.1021 19.4274 20.1406 19.1413 20.1406H3.22368C2.03482 20.1406 0.8125 19.5765 0.8125 18.3484V6.23864C0.8125 5.6041 1.10718 5.09608 1.54046 4.78755Z" fill="#000"/>
</svg>
