<svg width="30" height="30" viewBox="0 0 30 30" fill="none" xmlns="http://www.w3.org/2000/svg">
<g clip-path="url(#clip0_71_1116)">
<path d="M6.7702 29.8854C6.04563 30.2827 5.22519 29.5884 5.37106 28.7015L6.9268 19.2425L0.322431 12.5292C-0.294783 11.9018 0.0247176 10.7547 0.851572 10.6294L10.0362 9.23769L14.1314 0.58461C14.5003 -0.19487 15.4997 -0.19487 15.8686 0.58461L19.9638 9.23769L29.1484 10.6294C29.9753 10.7547 30.2948 11.9018 29.6776 12.5292L23.0732 19.2425L24.6289 28.7015C24.7748 29.5884 23.9544 30.2827 23.2298 29.8854L15 25.3735L6.7702 29.8854Z" fill="#DFDFE3"/>
<path fill-rule="evenodd" clip-rule="evenodd" d="M15 0C14.6579 -1.81104e-07 14.3159 0.19487 14.1314 0.58461L10.0362 9.23769L0.851572 10.6294C0.0247176 10.7547 -0.294783 11.9018 0.322431 12.5292L6.9268 19.2425L5.37106 28.7015C5.22519 29.5884 6.04563 30.2827 6.7702 29.8854L15 25.3735V0Z" fill="#6F00F8"/>
</g>
<defs>
<clipPath id="clip0_71_1116">
<rect width="30" height="30" fill="white"/>
</clipPath>
</defs>
</svg>
