<svg width="18" height="16" viewBox="0 0 18 16" fill="none" xmlns="http://www.w3.org/2000/svg">
<path d="M0.772965 12.986C-0.0113096 14.3192 0.950002 16 2.49683 16H15.5032C17.05 16 18.0113 14.3192 17.227 12.986L10.7239 1.93058C9.95057 0.615963 8.04943 0.615963 7.27613 1.93058L0.772965 12.986ZM9.90909 12.4211C9.90909 12.9152 9.5085 13.3158 9.01435 13.3158H8.98565C8.4915 13.3158 8.09091 12.9152 8.09091 12.4211C8.09091 11.9269 8.4915 11.5263 8.98565 11.5263H9.01435C9.5085 11.5263 9.90909 11.9269 9.90909 12.4211ZM9.90909 8.82775C9.90909 9.32983 9.50208 9.73684 9 9.73684C8.49792 9.73684 8.09091 9.32983 8.09091 8.82775V7.06699C8.09091 6.56491 8.49792 6.15789 9 6.15789C9.50208 6.15789 9.90909 6.56491 9.90909 7.06699V8.82775Z" fill="#7901F3"/>
</svg>
