<svg width="53" height="30" viewBox="0 0 53 30" fill="none" xmlns="http://www.w3.org/2000/svg">
<path d="M40.5875 0C35.1903 0 31.1247 1.81336 28.2639 4.72201C26.4089 1.81336 22.9759 0 17.5787 0C7.19437 0 1.7338 6.7111 0.321096 15.025C-1.09308 23.2889 2.02725 30 12.4116 30C17.8088 30 21.8744 28.1866 24.7351 25.2856C26.5917 28.1866 30.0247 30 35.4218 30C45.8062 30 51.2653 23.2889 52.6795 15.025C54.0922 6.7111 50.9718 0 40.5875 0ZM13.1902 25.6431C9.53461 25.6431 9.14384 22.3375 10.412 15.025C11.6802 7.66248 13.1416 4.40691 16.7987 4.40691C19.7391 4.40691 20.5664 6.51568 20.1181 11.171C19.3719 10.7635 18.5225 10.5317 17.6186 10.5317C14.6737 10.5317 12.2863 12.9844 12.2863 16.0097C12.2863 19.035 14.6737 21.4877 17.6186 21.4877C17.7498 21.4877 17.8796 21.4816 18.0093 21.471C16.9461 24.3084 15.5098 25.6401 13.1917 25.6401L13.1902 25.6431ZM19.3218 16.8747C18.3809 16.8747 17.6186 16.0915 17.6186 15.125C17.6186 14.1585 18.3809 13.3752 19.3218 13.3752C20.2626 13.3752 21.025 14.1585 21.025 15.125C21.025 16.0915 20.2626 16.8747 19.3218 16.8747ZM36.2004 25.6431C32.5448 25.6431 32.154 22.3375 33.4222 15.025C34.6904 7.66248 36.1518 4.40691 39.8089 4.40691C42.7508 4.40691 43.5766 6.51568 43.1283 11.1725C42.3821 10.7635 41.5298 10.5317 40.6258 10.5317C37.681 10.5317 35.2935 12.9844 35.2935 16.0097C35.2935 19.035 37.681 21.4877 40.6258 21.4877C40.7585 21.4877 40.8898 21.4816 41.021 21.471C39.9578 24.3084 38.5215 25.6401 36.2019 25.6401L36.2004 25.6431ZM42.3275 16.8747C41.3867 16.8747 40.6243 16.0915 40.6243 15.125C40.6243 14.1585 41.3867 13.3752 42.3275 13.3752C43.2684 13.3752 44.0307 14.1585 44.0307 15.125C44.0307 16.0915 43.2684 16.8747 42.3275 16.8747Z" fill="#E6E6E6"/>
</svg>
