<svg width="18" height="26" viewBox="0 0 18 26" fill="none" xmlns="http://www.w3.org/2000/svg">
<path d="M1.79433 7.39998C1.74521 7.72317 1.72 8.05688 1.72 8.39998H6.28C6.28 6.98998 7.48 5.99998 9.16 5.99998C10.96 5.99998 12.22 6.98998 12.22 8.39998C12.22 9.92998 10.93 11.01 9.07 11.01H7.51V14.61H9.01C11.08 14.61 12.55 15.81 12.55 17.52C12.55 19.17 11.05 20.34 8.95 20.34C6.97 20.34 5.56 19.17 5.56 17.52H1C1 17.8624 1.02372 18.196 1.07001 18.52C1.56722 21.9999 4.66858 24.36 8.95 24.36C13.63 24.36 16.9 21.72 16.9 17.97C16.9 16.3759 15.8756 14.5897 14.3308 13.3855C14.0441 13.162 13.7394 12.9585 13.42 12.78C13.734 12.5947 14.0321 12.382 14.3105 12.148C15.6547 11.0182 16.54 9.39144 16.54 7.94998C16.54 4.43998 13.48 1.97998 9.16 1.97998C5.17756 1.97998 2.28637 4.16248 1.79433 7.39998ZM15.1381 12.7526C16.7729 14.1076 17.9 16.0763 17.9 17.97C17.9 20.161 16.9348 22.0402 15.307 23.3503C13.6936 24.6488 11.4714 25.36 8.95 25.36C6.4125 25.36 4.18097 24.5944 2.56754 23.2053C0.943498 21.8071 0 19.82 0 17.52V16.52H6.56V17.52C6.56 18.4526 7.3413 19.34 8.95 19.34C10.7402 19.34 11.55 18.403 11.55 17.52C11.55 16.5383 10.722 15.61 9.01 15.61H6.51V10.01H9.07C9.81154 10.01 10.3597 9.79523 10.7033 9.50966C11.0343 9.23462 11.22 8.86187 11.22 8.39998C11.22 8.02087 11.0613 7.70403 10.7477 7.45793C10.4183 7.19947 9.88441 6.99998 9.16 6.99998C7.85086 6.99998 7.28 7.70771 7.28 8.39998V9.39998H0.72V8.39998C0.72 6.22147 1.60985 4.3393 3.14422 3.01537C4.66793 1.70062 6.77241 0.97998 9.16 0.97998C13.822 0.97998 17.54 3.69858 17.54 7.94998C17.54 9.67078 16.5667 11.4732 15.1381 12.7526Z" fill="white"/>
</svg>
