<svg width="19" height="25" viewBox="0 0 19 25" fill="none" xmlns="http://www.w3.org/2000/svg">
<path fill-rule="evenodd" clip-rule="evenodd" d="M6.74866 15.106L0.778057 14.4734L1.71153 0.160156H16.4884V6.12016H7.95625L7.85705 7.44276C8.30196 7.37094 8.74962 7.33016 9.18844 7.33016C11.8194 7.33016 14.1273 8.18221 15.7877 9.71389C17.4541 11.251 18.4084 13.4196 18.4084 15.9202C18.4084 18.4076 17.4527 20.5686 15.7867 22.1011C14.1267 23.6282 11.8193 24.4802 9.18844 24.4802C4.94117 24.4802 1.22158 21.6676 0.23687 17.6269L0 16.6549L6.39782 15.0987L6.6234 16.0878C6.9149 17.3659 7.9983 18.2202 9.18844 18.2202C10.0612 18.2202 10.7254 17.9493 11.159 17.5585C11.5847 17.1749 11.8484 16.6241 11.8484 15.9202C11.8484 15.215 11.5835 14.6543 11.1543 14.2625C10.7187 13.8649 10.0553 13.5902 9.18844 13.5902C9.00268 13.5902 8.67032 13.6686 8.2502 13.8866C7.84528 14.0966 7.43075 14.3996 7.08784 14.7548L6.74866 15.106ZM7.7799 8.4714C7.43855 8.53581 7.09589 8.62017 6.75844 8.72016L7.02844 5.12016H15.4884V1.16016H2.64844L1.83844 13.5802L6.36844 14.0602C7.20844 13.1902 8.37844 12.5902 9.18844 12.5902C11.3484 12.5902 12.8484 13.9702 12.8484 15.9202C12.8484 17.8702 11.3484 19.2202 9.18844 19.2202C7.54479 19.2202 6.10216 18.0715 5.67526 16.4204C5.66582 16.3839 5.65688 16.3472 5.64844 16.3102L1.20844 17.3902C1.28837 17.7181 1.3888 18.0373 1.50827 18.3464C2.6891 21.4019 5.72847 23.4802 9.18844 23.4802C14.0184 23.4802 17.4084 20.3602 17.4084 15.9202C17.4084 11.4502 14.0184 8.33016 9.18844 8.33016C8.73339 8.33016 8.25792 8.38121 7.7799 8.4714Z" fill="white"/>
</svg>
