<svg width="27" height="22" viewBox="0 0 27 22" fill="none" xmlns="http://www.w3.org/2000/svg">
<path fill-rule="evenodd" clip-rule="evenodd" d="M13.9901 3.03093C13.5138 2.68632 12.8764 2.69476 12.4089 3.05187L2.15474 11.7262C1.55609 12.1834 0.710517 12.0548 0.26611 11.4388C-0.178297 10.8228 -0.0532525 9.95274 0.545405 9.49547L10.7996 0.82118C12.2021 -0.25014 14.1142 -0.275457 15.5431 0.758377L26.4264 9.47454C27.0363 9.91581 27.1831 10.7823 26.7542 11.4098C26.3253 12.0374 25.4833 12.1884 24.8734 11.7471L13.9901 3.03093Z" fill="#000"/>
<path fill-rule="evenodd" clip-rule="evenodd" d="M4 19.367V7H6.71429V19.367H20.2857V7H23V19.367C23 20.8212 21.7848 22 20.2857 22H6.71429C5.21523 22 4 20.8212 4 19.367Z" fill="#000"/>
</svg>
