<?xml version="1.0" encoding="UTF-8"?><svg id="a" xmlns="http://www.w3.org/2000/svg" viewBox="0 0 1366 333.04"><path d="M602.01,98.28c-36.6,0-64.17,11.97-83.57,31.17-12.59-19.2-35.87-31.17-72.47-31.17-70.42,0-107.44,44.3-117.03,99.18-3.18,18.07-2.97,35.01,1.27,49.59-8.9,5.98-20.07,11.9-26.92,11.9-6.28,0-10.91-4.3-8.26-17.85l20.83-119.35c.66-3.97.99-6.28,0-8.26-6.61-10.25-34.38-16.53-48.27-16.2-12.23.33-15.54,1.98-20.83,8.93l-77.69,127.94-12.23-66.78c-6.61-34.05-10.25-68.43-63.81-68.43-12.89,0-27.77,3.97-47.61,11.57-1.32.66-2.65,1.32-2.65,3.31-.66,3.31-.66,15.54-.33,16.2,0,.99.99,2.65,2.98,1.98,14.55-3.64,40.99-19.17,60.5,6.28-12.23-2.65-29.75-1.98-40-.99-11.9.99-12.89,7.27-13.88,12.89l-22.81,130.59c-.66,3.64-.99,6.28.33,7.93,6.61,10.25,37.36,9.26,51.9,7.93,12.23-1.32,12.89-7.27,13.89-12.89l21.82-122.98c.66,1.98.99,4.3,1.98,6.61l25.79,102.48c.66,1.98.99,3.64,3.31,3.64,6.94.66,20.17.66,27.44,0,1.98,0,3.31-1.65,4.3-3.64l61.16-100.5-13.22,75.38c-3.97,22.48-1.65,51.24,31.08,51.24,24.46,0,51.57-11.9,75.71-35.7.21-.21.4-.41.53-.62,11.6,22.35,35.7,36.65,75.71,36.65,36.6,0,64.17-11.97,83.57-31.12,12.59,19.15,35.87,31.12,72.47,31.12,70.42,0,107.44-44.3,117.03-98.85,9.59-54.88-11.57-99.18-81.99-99.18ZM459.52,197.46c-8.6,48.27-18.51,70.09-43.31,70.09s-27.44-21.82-18.84-70.09c8.6-48.6,18.51-70.09,43.31-70.09s27.44,21.49,18.84,70.09ZM615.56,197.46c-8.6,48.27-18.51,70.09-43.31,70.09s-27.44-21.82-18.84-70.09c8.6-48.6,18.51-70.09,43.31-70.09s27.44,21.49,18.84,70.09Z" fill="#fff" stroke-width="0"/><path d="M921.41,104.56c-12.56.99-12.89,6.94-13.88,12.56l-22.17,126.13c-.11.04-.22.09-.36.16-16.53,14.88-30.08,18.18-41.32,18.18-31.08,0-43.97-47.94-48.93-62.81,31.41-7.6,69.43-23.8,75.38-55.87,1.98-11.24-.33-24.79-7.93-40.33-.99-1.98-2.97-2.65-4.96-1.65-1.65.66-31.41,15.21-31.41,15.21,0,0-3.97,1.65-2.31,5.29,14.88,32.07-24.79,53.23-59.51,61.49l10.91-62.48c.66-3.97.99-6.61-.33-8.26-3.97-6.61-18.18-8.27-31.41-8.6-12.89,0-26.78,1.32-46.94,8.93-1.32.66-2.65.99-2.98,2.98-.33,3.64-.33,15.54,0,16.53,0,.99.66,2.31,2.98,1.65,1.65-.33,3.31-.66,4.96-1.32,1.98-.33,5.29-.99,4.63,2.65l-25.46,145.79c-.66,3.64-.99,6.28,0,7.93,6.94,10.25,37.69,9.26,52.23,7.93,12.23-1.32,12.56-7.27,13.55-12.89l13.55-77.36.33-1.65c1.32-.33,2.65-.33,3.97-.66l-.33.33c.99,19.17.66,107.44,64.8,97.86,26.56-3.88,44.23-25.81,53.25-38.31l-2.96,16.82c-.66,3.64-.99,6.28,0,7.93,6.61,10.25,37.36,9.26,51.9,7.93,12.56-1.32,12.89-7.27,13.89-12.89l28.76-163.31c.66-3.97.99-6.61-.33-8.26-6.28-10.25-37.69-8.93-51.57-7.6Z" fill="#fff" stroke-width="0"/><path d="M1182.98,104.89c-3.97-9.26-21.82-8.93-27.11-9.59-1.98-.33-5.62,1.32-5.95,4.63-1.32,10.91-9.92,28.43-16.86,40.66l-53.23,93.23-28.43-122.98c-.99-3.31-1.98-5.62-3.97-6.28-10.91-5.62-43.64,2.31-56.53,8.6-11.9,5.62-9.26,11.57-7.6,16.53l45.29,164.31c.33,1.65.33,2.98,3.31,2.98,2.98-.33,38.68-3.31,46.28-4.96,1.98-.66,2.31-.99,3.64-2.65.33-.66,14.55-24.79,31.41-52.23,23.14-38.35,47.94-77.69,50.25-80.67,19.83-28.43,23.14-43.64,19.5-51.57Z" fill="#fff" stroke-width="0"/><path d="M1339.21,243.08c-.33,0-.66,0-1.32.33-33.06,17.85-102.82,33.06-116.37,8.6-7.6-13.89,3.97-44.63,46.28-44.63,1.32,0,2.64-.99,2.97-2.31l2.31-12.56c0-1.32-.99-2.65-2.31-2.65-29.75,0-37.69-20.5-32.07-37.69,5.62-16.86,20.5-26.45,40.33-26.45,4.3,0,7.6.66,9.92,1.98-2.31,3.31-3.64,6.94-4.3,10.91-2.65,14.88,6.94,26.78,21.16,26.78s27.44-11.9,30.08-26.78c1.65-9.26-.99-40.33-60.5-40.33-30.08,0-69.09,9.59-88.93,37.03-18.18,24.79-17.85,54.55,15.87,63.47-38.68,5.29-63.14,48.27-42.98,75.38,12.89,17.52,42.32,22.48,65.46,22.48,41.32,0,82.65-16.53,112.4-36.37.66-.33.66-.66.66-.99l2.65-14.55c0-.99-.33-1.65-1.32-1.65Z" fill="#fff" stroke-width="0"/><circle cx="446.24" cy="203.97" r="36.16" fill="#fff" stroke-width="0"/><circle cx="602.25" cy="203.97" r="36.16" fill="#fff" stroke-width="0"/></svg>