<svg width="11" height="11" viewBox="0 0 11 11" fill="none" xmlns="http://www.w3.org/2000/svg">
<path d="M8.19614 4.21103C8.19614 2.51858 6.66981 1 4.59807 1C2.52632 1 1 2.51858 1 4.21103C1 5.90348 2.52632 7.42205 4.59807 7.42205C6.66981 7.42205 8.19614 5.90348 8.19614 4.21103ZM7.08809 7.75174C6.37049 8.17589 5.51567 8.42205 4.59807 8.42205C2.05863 8.42205 0 6.53671 0 4.21103C0 1.88534 2.05863 0 4.59807 0C7.13751 0 9.19614 1.88534 9.19614 4.21103C9.19614 5.35398 8.69893 6.39059 7.8918 7.14932L10.1068 9.57099C10.2932 9.77483 10.2792 10.0911 10.0755 10.2774C9.87183 10.4637 9.55555 10.4494 9.36911 10.2456L7.08809 7.75174Z" fill="#737F8E"/>
</svg>
