<svg width="18" height="26" viewBox="0 0 18 26" fill="none" xmlns="http://www.w3.org/2000/svg">
<path d="M10.7289 19.3157C11.1047 18.9732 11.34 18.4806 11.34 17.8498C11.34 17.0973 11.0814 16.5104 10.691 16.115C10.3016 15.7207 9.72517 15.4598 8.98 15.4598C8.21488 15.4598 7.62101 15.7242 7.22115 16.1216C6.8215 16.5188 6.56 17.1039 6.56 17.8498C6.56 18.4733 6.7972 18.9645 7.18291 19.3094C7.57668 19.6616 8.18273 19.9098 8.98 19.9098C9.75801 19.9098 10.3463 19.6644 10.7289 19.3157ZM4.75 12.6598C4.43145 12.83 4.12624 13.023 3.83721 13.2348C2.13919 14.4786 1 16.3678 1 18.0598C1 21.9298 4.3 24.6598 8.98 24.6598C13.63 24.6598 16.9 21.9298 16.9 18.0598C16.9 16.3682 15.7833 14.5015 14.0923 13.2452C13.804 13.031 13.499 12.8346 13.18 12.6598C13.4832 12.4627 13.772 12.2426 14.0425 12.005C15.378 10.8321 16.27 9.23185 16.27 7.8598C16.27 4.2898 13.27 1.7998 8.98 1.7998C4.69 1.7998 1.66 4.2898 1.66 7.8598C1.66 9.18652 2.55815 10.7848 3.90131 11.9923C4.16786 12.2319 4.45194 12.4561 4.75 12.6598ZM3.05584 12.5727C2.5263 12.0714 2.06349 11.5155 1.69003 10.9374C1.07724 9.98887 0.66 8.90863 0.66 7.8598C0.66 5.76889 1.55661 3.9739 3.07437 2.72009C4.57888 1.47723 6.64703 0.799805 8.98 0.799805C11.3132 0.799805 13.375 1.4774 14.8728 2.72192C16.3837 3.97733 17.27 5.77236 17.27 7.8598C17.27 8.93234 16.8574 10.0267 16.24 10.9824C15.869 11.5566 15.4097 12.1039 14.8836 12.5927C16.6641 13.9942 17.9 16.049 17.9 18.0598C17.9 22.6446 14.0044 25.6598 8.98 25.6598C3.93371 25.6598 0 22.6513 0 18.0598C0 16.0453 1.2605 13.9659 3.05584 12.5727ZM7.69131 9.21074C7.97266 9.4856 8.40285 9.6798 8.98 9.6798C9.5373 9.6798 9.95998 9.48882 10.2397 9.21344C10.518 8.93949 10.71 8.52801 10.71 7.9798C10.71 7.54061 10.5437 7.20798 10.2791 6.97413C10.005 6.73198 9.56964 6.5498 8.98 6.5498C8.37099 6.5498 7.9279 6.73457 7.65182 6.97666C7.38585 7.20991 7.22 7.54107 7.22 7.9798C7.22 8.52774 7.41173 8.93762 7.69131 9.21074ZM12.34 17.8498C12.34 19.6498 10.96 20.9098 8.98 20.9098C6.97 20.9098 5.56 19.6498 5.56 17.8498C5.56 15.8698 6.97 14.4598 8.98 14.4598C10.96 14.4598 12.34 15.8698 12.34 17.8498ZM8.98 10.6798C7.36 10.6798 6.22 9.5698 6.22 7.9798C6.22 6.5398 7.36 5.5498 8.98 5.5498C10.57 5.5498 11.71 6.5398 11.71 7.9798C11.71 9.5698 10.57 10.6798 8.98 10.6798Z" fill="white"/>
</svg>
