<svg width="30" height="30" viewBox="0 0 30 30" fill="none" xmlns="http://www.w3.org/2000/svg">
<circle cx="14.875" cy="14.875" r="14.875" fill="#EDEDED"/>
<rect x="6" y="6.59961" width="18.5" height="14.5" rx="2" fill="black"/>
<path d="M17.117 16.2419C17.3331 16.3285 17.4997 16.4178 17.6188 16.5H12.9828C13.1019 16.4178 13.2685 16.3285 13.4846 16.2419C14.0931 15.9981 14.8417 15.875 15.3008 15.875C15.7598 15.875 16.5084 15.9981 17.117 16.2419ZM16.0508 12.25C16.0508 12.6646 15.7154 13 15.3008 13C14.8862 13 14.5508 12.6646 14.5508 12.25C14.5508 11.8354 14.8862 11.5 15.3008 11.5C15.7154 11.5 16.0508 11.8354 16.0508 12.25Z" fill="#D5D5D5" stroke="#D5D5D5" stroke-width="2" stroke-linejoin="round"/>
<path d="M12.5 20L9 24V20H12.5Z" fill="black"/>
<path d="M9 19V20M9 20V24L12.5 20H9Z" stroke="black"/>
</svg>
