<svg width="23" height="15" viewBox="0 0 23 15" fill="none" xmlns="http://www.w3.org/2000/svg">
<path d="M11.5 0C6.27273 0 1.80864 3.11 0 7.5C1.80864 11.89 6.27273 15 11.5 15C16.7273 15 21.1914 11.89 23 7.5C21.1914 3.11 16.7273 0 11.5 0ZM11.5 12.5C8.61454 12.5 6.27273 10.26 6.27273 7.5C6.27273 4.74 8.61454 2.5 11.5 2.5C14.3855 2.5 16.7273 4.74 16.7273 7.5C16.7273 10.26 14.3855 12.5 11.5 12.5ZM11.5 4.5C9.76455 4.5 8.36364 5.84 8.36364 7.5C8.36364 9.16 9.76455 10.5 11.5 10.5C13.2355 10.5 14.6364 9.16 14.6364 7.5C14.6364 5.84 13.2355 4.5 11.5 4.5Z" fill="#ACACAC"/>
</svg>
