<svg width="19" height="26" viewBox="0 0 19 26" fill="none" xmlns="http://www.w3.org/2000/svg">
<path d="M16.7858 14.1928L10.6807 25.2701H3.15901L7.37602 17.7834C5.46905 17.4789 3.80339 16.6818 2.53258 15.4789C0.921847 13.9543 0 11.8277 0 9.39014C0 6.91834 0.947796 4.7725 2.59853 3.25107C4.24337 1.73507 6.52843 0.890137 9.13 0.890137C11.7319 0.890137 14.0105 1.73531 15.6484 3.25284C17.2918 4.77548 18.23 6.92119 18.23 9.39014C18.23 11.2997 17.4674 12.9536 16.7858 14.1928ZM7.90304 16.8478C8.24324 16.8889 8.59251 16.9133 8.95 16.9201H9.01L4.87 24.2701H10.09L15.91 13.7101C16.57 12.5101 17.23 11.0401 17.23 9.39014C17.23 4.98014 13.9 1.89014 9.13 1.89014C4.36 1.89014 1 4.98014 1 9.39014C1 13.4079 3.78951 16.3507 7.90304 16.8478ZM7.26249 7.5531C6.83697 7.97609 6.56 8.59848 6.56 9.39014C6.56 10.2006 6.83955 10.8305 7.26461 11.2555C7.68966 11.6806 8.31954 11.9601 9.13 11.9601C9.92165 11.9601 10.544 11.6832 10.967 11.2576C11.3902 10.8319 11.67 10.2008 11.67 9.39014C11.67 7.87242 10.6477 6.85014 9.13 6.85014C8.31935 6.85014 7.68823 7.1299 7.26249 7.5531ZM5.56 9.39014C5.56 7.32014 7.03 5.85014 9.13 5.85014C11.2 5.85014 12.67 7.32014 12.67 9.39014C12.67 11.4901 11.2 12.9601 9.13 12.9601C7.03 12.9601 5.56 11.4901 5.56 9.39014Z" fill="white"/>
</svg>
